<?xml version='1.0' encoding='iso-8859-1'?>
<!DOCTYPE svg PUBLIC '-//W3C//DTD SVG 1.1//EN' 'http://www.w3.org/Graphics/SVG/1.1/DTD/svg11.dtd'>
<svg version="1.1" xmlns="http://www.w3.org/2000/svg" viewBox="0 0 460 460" xmlns:xlink="http://www.w3.org/1999/xlink" enable-background="new 0 0 460 460">
  <path d="m457.031,181.593l-65.942-65.942c11.463-4.058 19.699-15.001 19.699-27.838 0-16.282-13.245-29.527-29.526-29.527-12.836,0-23.78,8.236-27.838,19.7l-65.942-65.942c-1.901-1.901-4.48-2.969-7.169-2.969s-5.267,1.068-7.169,2.969c0,0-48.142,48.289-48.548,48.945-27.406-2.496-55.339,0.499-81.489,8.819-31.058,9.882-59.736,27.367-82.933,50.564-80.234,80.234-80.234,210.787 0,291.022 15.653,15.653 33.552,28.59 53.2,38.453 1.411,0.708 2.969,1.077 4.548,1.077h175.528c1.579,0 3.137-0.369 4.548-1.077 19.649-9.864 37.548-22.802 53.199-38.453 23.198-23.198 40.682-51.875 50.564-82.933 8.742-27.474 11.593-56.915 8.384-85.646l46.885-46.886c3.96-3.958 3.96-10.377 0.001-14.336zm-75.768-103.032c5.101,0 9.251,4.15 9.251,9.252 0,5.1-4.15,9.251-9.251,9.251-5.101,0-9.251-4.15-9.251-9.251 0.001-5.102 4.15-9.252 9.251-9.252zm-30.096,91.362l32.76-32.76 23.34,23.34-32.76,32.76-23.34-23.34zm-19.254-84.775l-32.76,32.76-23.34-23.34 32.76-32.76 23.34,23.34zm14.337,14.338l23.34,23.34-32.76,32.76-23.34-23.34 32.76-32.76zm-65.936-65.936l13.921,13.921-32.76,32.76-13.921-13.921 32.76-32.76zm74.405,331.205c0,5.59-4.548,10.138-10.138,10.138-4.109,0-7.647-2.462-9.238-5.985 5.446-3.348 10.043-7.945 13.391-13.391 3.523,1.59 5.985,5.129 5.985,9.238zm-258.509,30.413c-8.385,0-15.206-6.821-15.206-15.206s6.822-15.206 15.206-15.206 15.206,6.821 15.206,15.206-6.821,15.206-15.206,15.206zm25.344,10.137c5.59,0 10.138,4.548 10.138,10.138 0,5.59-4.548,10.138-10.138,10.138s-10.138-4.548-10.138-10.138c0.001-5.589 4.548-10.138 10.138-10.138zm182.477,10.138c0,5.59-4.548,10.138-10.138,10.138-1.727,0-3.354-0.437-4.779-1.201 2.703-5.049 4.368-10.733 4.709-16.766 2.898,2.613 6.298,4.677 10.038,6.028 0.106,0.585 0.17,1.185 0.17,1.801zm-81.101,0c0,5.59-4.548,10.138-10.138,10.138s-10.138-4.548-10.138-10.138c0-5.59 4.548-10.138 10.138-10.138s10.138,4.549 10.138,10.138zm-20.275-40.55c0-5.59 4.548-10.138 10.138-10.138s10.138,4.548 10.138,10.138-4.548,10.138-10.138,10.138-10.138-4.549-10.138-10.138zm33.001,20.529c3.474-6.192 10.095-10.392 17.686-10.392 11.18,0 20.275,9.095 20.275,20.275s-9.096,20.275-20.275,20.275c-4.029,0-7.779-1.195-10.938-3.23 0.518-2.221 0.801-4.531 0.801-6.907 0-7.663-2.855-14.667-7.549-20.021zm78.512-.254c-5.59,0-10.138-4.548-10.138-10.138 0-5.59 4.548-10.138 10.138-10.138 0.616,0 1.216,0.064 1.801,0.17 1.691,4.679 4.498,8.829 8.1,12.125-0.992,4.556-5.051,7.981-9.901,7.981zm-141.926-10.138c7.591,0 14.212,4.2 17.686,10.392-4.694,5.354-7.549,12.359-7.549,20.021 0,2.376 0.283,4.687 0.801,6.907-3.16,2.035-6.909,3.23-10.938,3.23-11.18,0-20.275-9.095-20.275-20.275s9.096-20.275 20.275-20.275zm141.926-30.412c-11.18,0-20.275-9.095-20.275-20.275s9.096-20.275 20.275-20.275c11.18,0 20.275,9.095 20.275,20.275s-9.095,20.275-20.275,20.275zm-34.149,1.549c-3.676,5.186-9.712,8.588-16.539,8.588-11.18,0-20.275-9.095-20.275-20.275s9.096-20.275 20.275-20.275c3.954,0 7.635,1.155 10.758,3.12-0.4,2.281-0.62,4.623-0.62,7.017 0,8.032 2.357,15.519 6.401,21.825zm-77.364-11.687c-11.18,0-20.275-9.095-20.275-20.275s9.096-20.275 20.275-20.275c11.18,0 20.275,9.095 20.275,20.275s-9.095,20.275-20.275,20.275zm-30.413,20.275c-13.233,0-25.004,6.374-32.41,16.21-4.934-3.699-8.14-9.582-8.14-16.21 0-11.18 9.096-20.275 20.275-20.275s20.275,9.095 20.275,20.275zm-70.963-20.275c-11.18,0-20.275-9.095-20.275-20.275s9.096-20.275 20.275-20.275 20.275,9.095 20.275,20.275-9.095,20.275-20.275,20.275zm-30.413,10.138c0,0.195-0.018,0.385-0.029,0.577-2.526,2.587-4.657,5.557-6.304,8.813-1.176,0.478-2.458,0.747-3.804,0.747-5.59,0-10.138-4.548-10.138-10.138s4.548-10.138 10.138-10.138 10.137,4.549 10.137,10.139zm300.167-4.825c-3.599-6.334-9.397-11.258-16.358-13.715 0.024-0.576 0.044-1.153 0.044-1.735 0-22.359-18.191-40.55-40.55-40.55-12.685,0-24.023,5.858-31.464,15.007-5.725-3.099-12.269-4.869-19.224-4.869-8.344,0-16.107,2.536-22.561,6.874-5.547-15.792-20.6-27.149-38.264-27.149-22.36,0-40.55,18.191-40.55,40.55 0,0.434 0.019,0.862 0.033,1.292-3.251-0.843-6.659-1.292-10.17-1.292s-6.919,0.449-10.17,1.292c0.014-0.43 0.033-0.859 0.033-1.292 0-22.359-18.191-40.55-40.55-40.55s-40.55,18.191-40.55,40.55c-10.838,0-20.364,5.703-25.751,14.262-28.629-67.562-15.459-148.767 39.532-203.758 41.534-41.535 101.058-61.053 159.227-52.202 0.485,0.074 155.249,154.837 155.322,155.322 5.874,38.612-0.763,77.815-18.029,111.963zm31.733-128.272l-13.921-13.921 32.76-32.76 13.921,13.921-32.76,32.76z"/>
</svg>
