<?xml version="1.0" encoding="iso-8859-1"?>
<!-- Generator: Adobe Illustrator 19.0.0, SVG Export Plug-In . SVG Version: 6.00 Build 0)  -->
<svg version="1.1" id="Capa_1" xmlns="http://www.w3.org/2000/svg" xmlns:xlink="http://www.w3.org/1999/xlink" x="0px" y="0px"
	 viewBox="0 0 489.4 489.4" style="enable-background:new 0 0 489.4 489.4;" xml:space="preserve">
<g>
	<g>
		<g>
			<path d="M230.5,394.4v35.2h25.1c4.2,0,7.6,3.4,7.6,7.6v21.9c0,4.2-3.4,7.6-7.6,7.6H134.9c-4.2,0-7.6-3.4-7.6-7.6v-21.9
				c0-4.2,3.4-7.6,7.6-7.6H160v-35.2H31.5C14.1,394.4,0,380.3,0,362.9V141.6c0-17.4,14.1-31.5,31.5-31.5h165.7
				c-1.9,9-2.9,18.2-2.9,27.7c0,5.1,0.4,10.2,1,15.3H43v198h304.6v-65.8c3.6,0.2,7.1,0.3,10.7,0.3c11.1,0,21.8-1,32.3-2.9v80.2
				c0,17.4-14.1,31.5-31.5,31.5L230.5,394.4L230.5,394.4z M358.2,252.8c-26.3,0-50.8-6.8-71.3-18.5c-18.5,11.1-38.5,10.7-50.1,9.1
				c-3.3-0.5-4.2-4.7-1.4-6.6c11.2-7.4,17.4-17.7,20.7-26.8c-18.2-19.8-29.2-44.9-29.2-72.3c0-63.5,58.8-115,131.3-115
				s131.2,51.5,131.2,115.1C489.4,201.3,430.7,252.8,358.2,252.8z M331.9,137.8c0-6.5-5.3-11.9-11.9-11.9s-11.9,5.3-11.9,11.9
				c0,6.5,5.3,11.9,11.9,11.9S331.9,144.3,331.9,137.8z M370,137.8c0-6.5-5.3-11.9-11.9-11.9c-6.5,0-11.9,5.3-11.9,11.9
				c0,6.5,5.3,11.9,11.9,11.9C364.7,149.6,370,144.3,370,137.8z M408.1,137.8c0-6.5-5.3-11.9-11.9-11.9c-6.5,0-11.9,5.3-11.9,11.9
				c0,6.5,5.3,11.9,11.9,11.9C402.8,149.6,408.1,144.3,408.1,137.8z"/>
		</g>
	</g>
</g>
<g>
</g>
<g>
</g>
<g>
</g>
<g>
</g>
<g>
</g>
<g>
</g>
<g>
</g>
<g>
</g>
<g>
</g>
<g>
</g>
<g>
</g>
<g>
</g>
<g>
</g>
<g>
</g>
<g>
</g>
</svg>
