<?xml version="1.0" encoding="iso-8859-1"?>
<!-- Generator: Adobe Illustrator 18.0.0, SVG Export Plug-In . SVG Version: 6.00 Build 0)  -->
<!DOCTYPE svg PUBLIC "-//W3C//DTD SVG 1.1//EN" "http://www.w3.org/Graphics/SVG/1.1/DTD/svg11.dtd">
<svg version="1.1" id="Capa_1" xmlns="http://www.w3.org/2000/svg" xmlns:xlink="http://www.w3.org/1999/xlink" x="0px" y="0px"
	 viewBox="0 0 428.27 428.27" style="enable-background:new 0 0 428.27 428.27;" xml:space="preserve">
<g>
	<path d="M117.934,191.328c0-24.131-19.632-43.764-43.764-43.764s-43.764,19.632-43.764,43.764s19.632,43.764,43.764,43.764
		S117.934,215.46,117.934,191.328z M45.406,191.328c0-15.86,12.903-28.764,28.764-28.764s28.764,12.903,28.764,28.764
		S90.03,220.092,74.17,220.092S45.406,207.189,45.406,191.328z"/>
	<path d="M325.347,23.204c1.045,2.676,3.759,4.52,6.609,4.634c3.173,0.127,6.169-1.845,7.305-4.804
		c1.17-3.046,0.194-6.604-2.385-8.604c-2.476-1.921-5.934-2.09-8.591-0.438C325.235,15.889,323.945,19.883,325.347,23.204
		C325.527,23.664,325.157,22.754,325.347,23.204z"/>
	<path d="M426.657,214.135c0-17.278-12.237-31.747-28.499-35.207V7.5c0-2.264-1.023-4.408-2.784-5.832
		c-1.761-1.424-4.072-1.977-6.285-1.502l-30.549,6.533c-4.051,0.866-6.632,4.852-5.766,8.902c0.866,4.051,4.854,6.633,8.902,5.766
		l21.48-4.593v162.154c-16.261,3.46-28.499,17.929-28.499,35.207s12.237,31.747,28.499,35.207v162.154l-301.49-64.481V304.43
		l51.196-70.446c10.149-13.965,14.993-31.134,13.64-48.344c-1.353-17.21-8.821-33.411-21.028-45.618
		c-12.239-12.239-27.8-19.172-43.808-20.821V81.246l222.23-47.523c4.051-0.866,6.632-4.852,5.766-8.902
		c-0.866-4.05-4.85-6.631-8.902-5.766L72.6,67.846c-3.459,0.74-5.932,3.796-5.932,7.334v44.021
		c-16.006,1.65-31.566,8.583-43.805,20.821C10.657,152.229,3.189,168.43,1.836,185.64c-1.354,17.21,3.49,34.379,13.64,48.344
		l51.193,70.442v48.654c0,3.538,2.472,6.594,5.932,7.334l316.49,67.69c0.52,0.111,1.046,0.166,1.568,0.166
		c1.701,0,3.369-0.579,4.716-1.668c1.761-1.424,2.784-3.567,2.784-5.832V249.342C414.42,245.881,426.657,231.413,426.657,214.135z
		 M33.47,150.629c11.221-11.221,25.96-16.832,40.7-16.832s29.479,5.611,40.7,16.832c20.145,20.145,22.609,51.492,5.861,74.538
		L74.17,289.234l-46.561-64.067C10.861,202.121,13.326,170.773,33.47,150.629z M390.659,235.133
		c-11.579,0-20.999-9.42-20.999-20.999s9.42-20.999,20.999-20.999s20.999,9.42,20.999,20.999S402.237,235.133,390.659,235.133z"/>
</g>
<g>
</g>
<g>
</g>
<g>
</g>
<g>
</g>
<g>
</g>
<g>
</g>
<g>
</g>
<g>
</g>
<g>
</g>
<g>
</g>
<g>
</g>
<g>
</g>
<g>
</g>
<g>
</g>
<g>
</g>
</svg>
