<?xml version="1.0" encoding="iso-8859-1"?>
<!-- Generator: Adobe Illustrator 19.0.0, SVG Export Plug-In . SVG Version: 6.00 Build 0)  -->
<svg version="1.1" id="Layer_1" xmlns="http://www.w3.org/2000/svg" xmlns:xlink="http://www.w3.org/1999/xlink" x="0px" y="0px"
	 viewBox="0 0 512 512" style="enable-background:new 0 0 512 512;" xml:space="preserve">
<g>
	<g>
		<g>
			<path d="M366.484,148.211c0,16.345,13.297,29.642,29.642,29.642c16.345,0,29.642-13.297,29.642-29.642
				c0-16.345-13.297-29.642-29.642-29.642C379.782,118.569,366.484,131.865,366.484,148.211z M409.6,148.211
				c0,7.43-6.044,13.474-13.474,13.474c-7.43,0-13.474-6.044-13.474-13.474s6.044-13.474,13.474-13.474
				C403.556,134.737,409.6,140.781,409.6,148.211z"/>
			<path d="M509.632,476.642l-21.558-21.558c-3.156-3.157-8.275-3.157-11.432,0c-3.157,3.156-3.157,8.275,0,11.432l7.758,7.758H51.2
				c-7.43,0-13.474-6.044-13.474-13.474V27.602l7.758,7.758c3.156,3.157,8.275,3.157,11.432,0c3.157-3.156,3.157-8.275,0-11.432
				L35.358,2.369c-3.156-3.157-8.275-3.157-11.432,0L2.368,23.927c-3.157,3.156-3.157,8.275,0,11.432
				c3.156,3.157,8.275,3.157,11.432,0l7.758-7.758V460.8c0,16.345,13.298,29.642,29.642,29.642h433.199l-7.758,7.758
				c-3.157,3.156-3.157,8.275,0,11.432c1.578,1.579,3.648,2.368,5.716,2.368s4.138-0.79,5.716-2.368l21.558-21.558
				C512.79,484.918,512.79,479.799,509.632,476.642z"/>
			<path d="M482.358,59.284c16.345,0,29.642-13.298,29.642-29.642C512,13.298,498.702,0,482.358,0s-29.642,13.298-29.642,29.642
				C452.715,45.987,466.012,59.284,482.358,59.284z M482.358,16.169c7.43,0,13.474,6.044,13.474,13.474
				c0,7.43-6.044,13.474-13.474,13.474s-13.474-6.044-13.474-13.474C468.884,22.213,474.928,16.169,482.358,16.169z"/>
			<path d="M94.316,447.326c16.345,0,29.642-13.297,29.642-29.642s-13.297-29.642-29.642-29.642s-29.642,13.297-29.642,29.642
				S77.97,447.326,94.316,447.326z M94.316,404.211c7.43,0,13.474,6.044,13.474,13.474s-6.044,13.474-13.474,13.474
				s-13.474-6.044-13.474-13.474C80.842,410.255,86.886,404.211,94.316,404.211z"/>
			<path d="M374.568,102.4c16.345,0,29.642-13.298,29.642-29.642c0-16.344-13.297-29.642-29.642-29.642
				s-29.642,13.297-29.642,29.642C344.926,89.103,358.223,102.4,374.568,102.4z M374.568,59.284c7.43,0,13.474,6.044,13.474,13.474
				c0,7.43-6.044,13.474-13.474,13.474s-13.474-6.044-13.474-13.474C361.094,65.329,367.138,59.284,374.568,59.284z"/>
			<path d="M180.547,393.432c16.345,0,29.642-13.297,29.642-29.642c0-16.345-13.297-29.642-29.642-29.642
				s-29.642,13.297-29.642,29.642C150.905,380.135,164.202,393.432,180.547,393.432z M180.547,350.316
				c7.43,0,13.474,6.044,13.474,13.474s-6.044,13.474-13.474,13.474s-13.474-6.044-13.474-13.474
				C167.073,356.361,173.117,350.316,180.547,350.316z"/>
			<path d="M256,199.411c16.345,0,29.642-13.297,29.642-29.642S272.345,140.126,256,140.126s-29.642,13.297-29.642,29.642
				S239.654,199.411,256,199.411z M256,156.295c7.43,0,13.474,6.044,13.474,13.474S263.43,183.242,256,183.242
				c-7.43,0-13.474-6.044-13.474-13.474C242.526,162.34,248.57,156.295,256,156.295z"/>
			<path d="M180.547,317.979c16.345,0,29.642-13.297,29.642-29.642s-13.297-29.642-29.642-29.642s-29.642,13.297-29.642,29.642
				S164.202,317.979,180.547,317.979z M180.547,274.863c7.43,0,13.474,6.044,13.474,13.474s-6.044,13.474-13.474,13.474
				s-13.474-6.044-13.474-13.474C167.073,280.908,173.117,274.863,180.547,274.863z"/>
			<path d="M258.694,277.558c0,16.345,13.297,29.642,29.642,29.642s29.642-13.297,29.642-29.642
				c0-16.345-13.297-29.642-29.642-29.642C271.992,247.916,258.694,261.213,258.694,277.558z M288.337,264.084
				c7.43,0,13.474,6.044,13.474,13.474s-6.044,13.474-13.474,13.474s-13.474-6.044-13.474-13.474
				C274.863,270.129,280.907,264.084,288.337,264.084z"/>
		</g>
	</g>
</g>
<g>
</g>
<g>
</g>
<g>
</g>
<g>
</g>
<g>
</g>
<g>
</g>
<g>
</g>
<g>
</g>
<g>
</g>
<g>
</g>
<g>
</g>
<g>
</g>
<g>
</g>
<g>
</g>
<g>
</g>
</svg>
