<?xml version="1.0" encoding="iso-8859-1"?>
<!-- Generator: Adobe Illustrator 19.0.0, SVG Export Plug-In . SVG Version: 6.00 Build 0)  -->
<svg version="1.1" id="Layer_1" xmlns="http://www.w3.org/2000/svg" xmlns:xlink="http://www.w3.org/1999/xlink" x="0px" y="0px"
	 viewBox="0 0 512 512" style="enable-background:new 0 0 512 512;" xml:space="preserve">
<g>
	<g>
		<g>
			<path d="M213.589,136.533c4.71,0,8.533-3.823,8.533-8.533c0-4.71-3.823-8.533-8.533-8.533h-0.094
				c-4.702,0-8.482,3.823-8.482,8.533C205.013,132.71,208.87,136.533,213.589,136.533z"/>
			<path d="M369.007,298.615c0,5.922-0.145,8.678-3.533,12.066c-8.055,8.047-21.18,4.062-21.495,3.968
				c-4.48-1.459-9.267,0.964-10.743,5.41c-1.485,4.471,0.93,9.301,5.393,10.795c0.461,0.154,5.973,1.929,13.295,1.929
				c7.765,0,17.579-1.997,25.617-10.035c8.533-8.533,8.533-17.545,8.533-24.132c0-5.914,0.137-8.67,3.533-12.066
				c8.098-8.098,21.35-3.994,21.436-3.968c4.514,1.51,9.301-0.93,10.786-5.402c1.493-4.471-0.922-9.301-5.393-10.795
				c-0.939-0.316-23.287-7.518-38.895,8.098C369.007,283.017,369.007,292.036,369.007,298.615z"/>
			<path d="M213.589,426.667c4.71,0,8.533-3.823,8.533-8.533s-3.823-8.533-8.533-8.533h-0.094c-4.702,0-8.482,3.823-8.482,8.533
				S208.87,426.667,213.589,426.667z"/>
			<path d="M273.067,273.067c0,4.71,3.814,8.533,8.533,8.533c4.71,0,8.533-3.823,8.533-8.533v-9.566
				c6.664-1.63,12.757-5.163,17.903-10.061l10.709,9.071c1.613,1.357,3.567,2.022,5.513,2.022c2.423,0,4.83-1.024,6.511-3.021
				c3.055-3.593,2.603-8.977-0.99-12.023l-11.64-9.856c2.688-5.367,4.582-11.366,5.487-17.766h9.173c4.71,0,8.533-3.823,8.533-8.533
				c0-4.71-3.823-8.533-8.533-8.533h-9.173c-0.905-6.4-2.799-12.399-5.487-17.766l11.64-9.856c3.593-3.046,4.045-8.431,0.99-12.023
				c-3.029-3.584-8.405-4.053-12.023-0.998l-10.709,9.071c-5.146-4.898-11.238-8.431-17.903-10.061V153.6
				c0-4.71-3.823-8.533-8.533-8.533c-4.719,0-8.533,3.823-8.533,8.533v9.566c-6.673,1.63-12.757,5.163-17.911,10.061l-10.709-9.071
				c-3.618-3.055-8.994-2.586-12.023,0.998c-3.046,3.593-2.603,8.977,0.99,12.023l11.639,9.856
				c-2.688,5.367-4.582,11.366-5.478,17.766H230.4c-4.719,0-8.533,3.823-8.533,8.533c0,4.71,3.814,8.533,8.533,8.533h9.173
				c0.896,6.4,2.79,12.399,5.478,17.766l-11.639,9.856c-3.593,3.046-4.036,8.431-0.99,12.023c1.681,1.997,4.096,3.021,6.519,3.021
				c1.937,0,3.9-0.666,5.504-2.022l10.709-9.071c5.154,4.898,11.238,8.431,17.911,10.061V273.067z M256,213.333
				c0-18.825,11.477-34.133,25.6-34.133c14.114,0,25.6,15.309,25.6,34.133c0,18.825-11.486,34.133-25.6,34.133
				C267.477,247.467,256,232.158,256,213.333z"/>
			<path d="M247.723,307.2h-0.094c-4.71,0-8.482,3.823-8.482,8.533s3.857,8.533,8.576,8.533c4.71,0,8.533-3.823,8.533-8.533
				S252.433,307.2,247.723,307.2z"/>
			<path d="M307.2,375.467c0-9.412-7.663-17.067-17.067-17.067c-9.412,0-17.067,7.654-17.067,17.067
				c0,9.412,7.654,17.067,17.067,17.067C299.537,392.533,307.2,384.879,307.2,375.467z"/>
			<path d="M136.533,221.867c0-9.412-7.663-17.067-17.067-17.067c-9.412,0-17.067,7.654-17.067,17.067
				c0,9.412,7.654,17.067,17.067,17.067C128.87,238.933,136.533,231.279,136.533,221.867z"/>
			<path d="M179.456,187.733h-0.094c-4.702,0-8.482,3.823-8.482,8.533s3.857,8.533,8.576,8.533c4.71,0,8.533-3.823,8.533-8.533
				S184.166,187.733,179.456,187.733z"/>
			<path d="M256,0C114.842,0,0,114.842,0,256s114.842,256,256,256s256-114.842,256-256S397.158,0,256,0z M256,494.933
				C124.245,494.933,17.067,387.746,17.067,256S124.245,17.067,256,17.067c131.746,0,238.933,107.187,238.933,238.933
				S387.746,494.933,256,494.933z"/>
			<path d="M174.993,366.498c0.896,0.299,1.801,0.435,2.697,0.435c3.576,0,6.912-2.261,8.09-5.837
				c0.316-0.939,7.526-23.296-8.098-38.904c-8.533-8.533-17.553-8.533-24.132-8.533c-5.914,0-8.678-0.145-12.066-3.533
				c-8.098-8.098-4.002-21.359-3.977-21.436c1.493-4.471-0.922-9.301-5.393-10.795c-4.506-1.502-9.301,0.93-10.786,5.393
				c-0.324,0.947-7.526,23.296,8.09,38.903c8.533,8.533,17.544,8.533,24.132,8.533c5.914,0,8.67,0.136,12.066,3.533
				c8.038,8.038,4.062,21.163,3.968,21.487C168.124,360.209,170.539,365.013,174.993,366.498z"/>
			<path d="M409.856,179.2c0-4.71-3.823-8.533-8.533-8.533h-0.094c-4.71,0-8.482,3.823-8.482,8.533s3.857,8.533,8.576,8.533
				C406.033,187.733,409.856,183.91,409.856,179.2z"/>
			<path d="M256,34.133C133.658,34.133,34.133,133.666,34.133,256S133.658,477.867,256,477.867c4.71,0,8.533-3.823,8.533-8.533
				S260.71,460.8,256,460.8c-112.93,0-204.8-91.878-204.8-204.8S143.07,51.2,256,51.2c112.922,0,204.8,91.878,204.8,204.8
				c0,101.103-72.329,186.129-171.972,202.18c-4.651,0.751-7.817,5.129-7.066,9.788c0.751,4.651,5.12,7.817,9.788,7.066
				C399.505,457.643,477.867,365.525,477.867,256C477.867,133.666,378.342,34.133,256,34.133z"/>
		</g>
	</g>
</g>
<g>
</g>
<g>
</g>
<g>
</g>
<g>
</g>
<g>
</g>
<g>
</g>
<g>
</g>
<g>
</g>
<g>
</g>
<g>
</g>
<g>
</g>
<g>
</g>
<g>
</g>
<g>
</g>
<g>
</g>
</svg>
